<svg id="Layer_1" data-name="Layer 1" xmlns="http://www.w3.org/2000/svg" viewBox="0 0 800 800"><defs><style>.cls-1{fill:#388e3c;}.cls-2{fill:#4fc3f7;}.cls-3{opacity:0.07;}.cls-4{fill:#c0ca33;}.cls-5{opacity:0.11;}</style></defs><title>logo</title><path class="cls-1" d="M673,107.65v59A357.69,357.69,0,0,1,759.16,400c0,198.36-160.8,359.16-359.16,359.16S40.84,598.36,40.84,400,201.64,40.84,400,40.84a357.79,357.79,0,0,1,242,93.75V81.47A398.13,398.13,0,0,0,400,0C179.09,0,0,179.09,0,400S179.09,800,400,800,800,620.91,800,400A398.89,398.89,0,0,0,673,107.65Z"/><polygon class="cls-1" points="664.68 211.47 756.88 161.57 664.75 102.31 664.68 211.47"/><path class="cls-2" d="M710,400c0,171.21-138.79,310-310,310C804,363,367.32,91.71,367.32,91.71A312.2,312.2,0,0,1,400,90C571.21,90,710,228.79,710,400Z"/><path class="cls-2" d="M514.93,583.28C488.19,624.07,450.72,666.43,400,710A310.17,310.17,0,0,1,110.06,290.09c40.65-107.21,139.07-186,257.26-198.38,0,0,13.35,8.3,33.23,23.84C480.06,177.74,664,356,514.93,583.28Z"/><polyline class="cls-3" points="664.75 102.31 731.11 175.52 756.88 161.57"/><path class="cls-4" d="M589,555c-8.66,35.29-51.46,44.42-74.07,28.28h0C503.58,575.18,497.32,560.71,503,540c17-62-6-116-6-158s-22-85-106-112-46-62-54-94c-4.59-18.36,31.74-42.88,63.55-60.45,23.62-13,44.75-22.26,44.75-22.26,99.31,14.54,183.33,76.17,228.64,161.49C677.7,281.05,682.19,316,692,342,709,387,602,502,589,555Z"/><path class="cls-5" d="M710,400c0,171.21-138.79,310-310,310q6-5.14,11.73-10.27l2.86-2.56.54-.49q1.65-1.47,3.27-3,2-1.79,3.88-3.56c1.65-1.52,3.28-3,4.9-4.57l3.24-3.06,3.41-3.27c.86-.82,1.7-1.64,2.54-2.46q11.72-11.4,22.27-22.69c.78-.84,1.56-1.67,2.33-2.51s1.54-1.66,2.3-2.5q3.84-4.19,7.53-8.37l2.57-2.94c1.24-1.42,2.46-2.83,3.67-4.25q1.48-1.74,2.94-3.48,5.17-6.16,10-12.31,2.3-2.89,4.51-5.79l.32-.42c.52-.67,1-1.35,1.55-2q1.33-1.75,2.65-3.52c.77-1,1.52-2.06,2.27-3.08q2.06-2.79,4-5.59,2.28-3.2,4.45-6.37c.76-1.11,1.51-2.21,2.25-3.32.13-.18.25-.37.38-.57q1.27-1.89,2.51-3.78l.31-.47c1-1.6,2.09-3.21,3.1-4.81l.33-.52q2.76-4.34,5.34-8.66,1.56-2.58,3-5.15,2.07-3.57,4-7.12c.87-1.57,1.73-3.15,2.57-4.72,1.09-2.06,2.17-4.11,3.22-6.16.43-.84.85-1.68,1.27-2.52s1-1.89,1.4-2.83.85-1.71,1.26-2.57a2.56,2.56,0,0,1,.11-.24q2-4.21,3.89-8.4l.3-.67q1.11-2.48,2.15-4.94,4.2-9.81,7.59-19.47c.31-.87.62-1.75.91-2.62q1.28-3.71,2.43-7.38c.23-.72.45-1.43.67-2.15s.46-1.5.68-2.24c.45-1.5.89-3,1.31-4.49,0,0,0,0,0,0,.51-1.8,1-3.59,1.46-5.38.24-.9.47-1.8.69-2.69q.75-3,1.43-6c.16-.68.31-1.36.46-2s.29-1.31.43-2,.27-1.25.39-1.87l.3-1.47c.3-1.45.58-2.89.84-4.33,0-.26.1-.51.14-.77.13-.71.26-1.42.38-2.13.2-1.13.39-2.27.57-3.4.14-.84.27-1.68.4-2.52.17-1.12.33-2.24.49-3.36s.35-2.51.5-3.76q.57-4.49,1-8.93c.07-.69.13-1.38.19-2.07q.35-4.09.57-8.16c.08-1.53.15-3.05.21-4.57,0-.84.06-1.69.08-2.53s0-1.68.06-2.52l0-1.86c0-1.05,0-2.1,0-3.15,0-1.47,0-2.94,0-4.4v-.17c0-1.45-.06-2.9-.11-4.34,0-1.16-.08-2.33-.14-3.48,0-.28,0-.56,0-.84,0-.49,0-1-.08-1.46,0-.9-.1-1.8-.16-2.7,0-.26,0-.53,0-.8-.06-1-.13-2-.22-2.92,0-.58-.08-1.15-.14-1.73-.19-2.28-.41-4.54-.66-6.8-.09-.83-.18-1.66-.29-2.48,0-.47-.11-.94-.17-1.41-.09-.72-.18-1.43-.28-2.15a1.23,1.23,0,0,0,0-.19c-.32-2.37-.66-4.73-1-7.08-.11-.68-.22-1.37-.34-2,0-.27-.09-.53-.14-.8-.15-.9-.31-1.8-.47-2.7a.36.36,0,0,0,0-.1c-.2-1.14-.42-2.27-.64-3.41s-.47-2.41-.73-3.61c-.08-.42-.17-.85-.26-1.27-.2-.95-.41-1.9-.62-2.85-.59-2.6-1.2-5.19-1.85-7.76l-.48-1.88q-1-3.66-2-7.27c-.33-1.16-.67-2.31-1-3.46-.1-.34-.2-.67-.31-1q-1-3.44-2.16-6.84c-1-2.94-2-5.86-3-8.76-.44-1.2-.88-2.4-1.33-3.59s-.92-2.41-1.38-3.6l-.18-.45c-.48-1.21-1-2.42-1.45-3.62-.41-1-.82-2-1.24-3q-1-2.37-2-4.71c-.53-1.2-1.05-2.39-1.59-3.58l0-.09c-.55-1.21-1.1-2.41-1.66-3.61s-1-2.18-1.53-3.26q-1.92-4-3.91-7.92c-.55-1.07-1.1-2.14-1.66-3.21-.63-1.22-1.27-2.43-1.92-3.64l-1.09-2c-.36-.67-.73-1.33-1.09-2l-1.72-3.08c-.63-1.12-1.27-2.23-1.9-3.33l-.25-.43c-.61-1.06-1.23-2.11-1.85-3.15s-1.35-2.28-2-3.41-1.28-2.12-1.93-3.16l-.14-.22c-.69-1.12-1.39-2.24-2.1-3.35s-1.41-2.22-2.12-3.32l-2-3c-.07-.09-.13-.19-.19-.28l-2.12-3.19c-.32-.46-.63-.92-.93-1.37-1.09-1.6-2.19-3.19-3.28-4.76l-2.54-3.6c-.73-1-1.46-2-2.2-3-1.53-2.11-3.08-4.21-4.64-6.28l-2.12-2.79-.32-.42q-1.71-2.23-3.45-4.44l-.42-.52c-.43-.56-.88-1.12-1.32-1.67q-5.22-6.56-10.53-12.78L480,191q-1.74-2-3.48-4c-.61-.7-1.23-1.4-1.85-2.09-6.55-7.36-13.13-14.33-19.63-20.89q-1.18-1.2-2.37-2.37c-6.37-6.35-12.64-12.3-18.72-17.84l-2.08-1.88c-11.41-10.3-22.1-19.12-31.36-26.37-7.46-5.83-14-10.64-19.25-14.37l-1.29-.91q-2.73-1.93-4.94-3.44l-1-.65c-3.47-2.36-5.72-3.8-6.49-4.28l-.26-.17,0,0a313.35,313.35,0,0,1,78,1.58c99.31,14.54,183.33,76.17,228.64,161.49A308.56,308.56,0,0,1,710,400Z"/><path class="cls-4" d="M273,461c-37,48-58,107-61,145a80,80,0,0,1-10,32.5,310.31,310.31,0,0,1-91.91-348.41C110.74,291.26,155.27,367,190,365c35-2,75,14,75,14S310,413,273,461Z"/></svg>