<svg xmlns="http://www.w3.org/2000/svg" xmlns:xlink="http://www.w3.org/1999/xlink" data-name="Layer 1" width="415.95833337472527" height="459.5416651351585" style=""><rect id="backgroundrect" width="100%" height="100%" x="0" y="0" fill="none" stroke="none"/><defs><linearGradient id="linear-gradient" x1="0.05121142417192459" y1="0.31708377599716187" x2="2.1357743740081787" y2="1.1577210426330566"><stop offset="0.02" stop-color="#fff" stop-opacity="0"/><stop offset="0.32" stop-color="#fff" stop-opacity="0.39"/><stop offset="0.68" stop-color="#fff" stop-opacity="0.68"/><stop offset="1" stop-color="#fff"/></linearGradient><linearGradient id="linear-gradient-2" x1="-0.1580708622932434" y1="1.0788298845291138" x2="0.6770275235176086" y2="0.22078825533390045"><stop offset="0.01"/><stop offset="0.13" stop-opacity="0.69"/><stop offset="1" stop-opacity="0"/></linearGradient><linearGradient id="linear-gradient-3" x1="206.80999755859375" y1="138.99000549316406" x2="196.05999755859375" y2="471.3599853515625" xlink:href="#linear-gradient-2"/><linearGradient id="linear-gradient-4" x1="209.72000122070312" y1="54.0099983215332" x2="286.1600036621094" y2="54.0099983215332" xlink:href="#linear-gradient"/><linearGradient id="linear-gradient-5" x1="135.2899932861328" y1="447.8800048828125" x2="128.83999633789062" y2="226.83999633789062" xlink:href="#linear-gradient-2"/></defs><title>Save the Earthsvg</title><g class="currentLayer" style=""><title>Layer 1</title><path d="M333.94285186087376,295.02756748383683 c-4.509296409612646,18.7457888980422 -11.003223274953015,37.304119907103974 -22.47897761079358,52.84973484326612 c-17.45664747793159,23.64647370995894 -44.75544190977821,38.08073116145143 -72.12174077889448,49.154136460509214 c-22.55998293551716,9.118487313976239 -46.26754130461838,16.576633325554457 -70.63664315896217,16.97832880194108 c-33.09067514958262,0.5489838177283799 -65.19578551502835,-11.903575950256796 -98.29996155206491,-12.76052629988158 c-39.15257361639723,-1.0042386909665477 -77.04956469957897,14.233409713299187 -116.10763210379868,16.429344984212694 a175.60604311326853,174.1617687120249 0 0 1 -114.82504779567532,-34.706489159803844 a164.3328020892369,162.98124461926403 0 0 1 -20.66985869196695,-18.41104266772001 A146.9031563862132,145.6949492854265 0 0 1 -212.76208469857073,314.37589959645896 a161.10608998774765,159.78107065738394 0 0 1 -7.4254880996615436,-29.14970173645562 c-2.5921703911545757,-15.880361166484319 -3.2807156513050093,-32.13563811092948 -3.550733400383611,-48.283796261671554 c-0.8505559095975972,-51.12244429480365 3.4832289631139606,-105.92709712315131 35.21031447984965,-146.23054325394202 c11.138232149492316,-14.139680768808972 25.165654214125666,-25.762069885595132 39.0445665167658,-37.26395035946531 l76.64453807596105,-63.45449541987283 c20.048817869086168,-16.603413023980234 40.19214195034984,-33.260385444812016 62.53611068660413,-46.67701435612506 c24.70662404069204,-14.82256307866622 51.72189983600613,-25.44071350448584 78.80468006858987,-35.37598162044821 c12.01578983399777,-4.39187054182703 24.220592092350564,-8.716791837589621 36.96542984886056,-10.082556457304124 c27.919835254727403,-2.9993262236867513 55.434643885836905,8.5293339486092 79.38521822910886,23.07071019380479 C207.31802843046367,-65.44056317630167 228.93294924420564,-47.752572366077565 238.18105715014778,-23.24914830649385 c7.776511173463726,20.513248994143318 5.953891367183165,43.31616220369037 10.544193101519395,64.78009049194868 c9.572129204836425,44.81582531553375 46.227038642256595,77.52722694261736 69.01653666449056,115.90253478675233 C342.48891361921153,199.10268772271243 345.0675831229121,248.52462116747927 333.94285186087376,295.02756748383683 z" fill="#27aa24" opacity="0.18" style="isolation:isolate" id="svg_1" class="" transform="rotate(29.125959396362305 58.20138168334966,157.65155029296875) "/><path d="M153.1,106.20999954223633 a6.35,6.35 0 0 0 -5.2,3.7 a9.16,9.16 0 0 0 -0.27,6.54 a5.91,5.91 0 0 1 0.5,2.56 a5.15,5.15 0 0 1 -1,2 a14.93,14.93 0 0 0 -2.9,8.28 c0,3 1.71,6.05 4.5,7.05 c-1.78,3.74 -1.83,8.54 0.78,11.76 s8.14,3.93 10.9,0.8400000000000001 a7.74,7.74 0 0 0 14.37,-2 c2.62,1.47 6.18,0.24000000000000002 7.9,-2.22 a10,10 0 0 0 0.92,-8.64 a25.34,25.34 0 0 0 -4.51,-7.74 c2.14,-1.62 4.38,-3.35 5.4,-5.83 s0.28,-5.91 -2.22,-6.87 a9.5,9.5 0 0 0 -9.2,-14.65 c-1.9300000000000002,0.22000000000000003 -3.37,1.35 -5.28,0.52 c-1.48,-0.6500000000000001 -2.39,-2.6100000000000003 -3.62,-3.62 C158.71,93.44999954223633 149.74,99.25999954223633 153.1,106.20999954223633 z" fill="#27aa24" id="svg_2"/><path d="M297,212.22999954223633 a97.2,97.2 0 0 1 -194.22,0 z" fill="#27aa24" id="svg_3"/><path d="M257.28,212.22999954223633 S243,288.51999954223635 227.7,291.28999954223633 s29.58,5.91 52.17,-28.51 C299.52,232.84999954223633 297,212.22999954223633 297,212.22999954223633 z" fill="url(#linear-gradient)" id="svg_4"/><path d="M129.64,212.75999954223633 s7.890000000000001,72.07 54.86,79.24 s59.88,1.44 59.88,1.44 s-29,28.68 -68.49,17.92 s-61.48,-52.93 -61.48,-52.93 s-12.72,-35.26 -11.65,-46.2 z" fill="url(#linear-gradient-2)" id="svg_5"/><g id="o1A6vW"><path d="M161.87,219.55999954223634 c0.2,-0.28 0.49000000000000005,-0.77 0.8400000000000001,-1.21 c0.9400000000000001,-1.27 1.8900000000000001,-1.22 2.49,0.28 c1,2.43 2.16,4.890000000000001 1.4300000000000002,7.62 a11.26,11.26 0 0 1 -1.26,2.3 c-1.53,2.7600000000000002 -5.08,4.67 -3.6,8.68 a1.4,1.4 0 0 1 -0.1,1.15 c-1.26,1.85 -0.45,3.24 0.6700000000000002,4.84 c1.56,2.23 2.66,4.79 4.26,7 c2.29,3.12 3.6100000000000003,7 7.07,9.19 c1.6800000000000002,1.06 3.51,1.9300000000000002 5.09,3.11 a4.5,4.5 0 0 1 1.6500000000000001,2.63 c0.38000000000000006,2.7600000000000002 0.38000000000000006,5.57 0.6700000000000002,8.35 c0.23,2.23 0.7600000000000001,4.45 1,6.68 A9.61,9.61 0 0 1 182,283.9799995422363 a8.65,8.65 0 0 0 -0.05000000000000001,5.640000000000001 c0.54,1.6400000000000001 1,3.31 1.49,5 c1.46,4.59 8.26,8 13.09,6.55 l-5.14,-2.59 c0.93,-1 1.6500000000000001,-1.73 2.46,-2.58 l-2.13,-1.28 l2,-1.2 c-0.22000000000000003,-0.9500000000000001 -0.44000000000000006,-1.9300000000000002 -0.7000000000000001,-3.13 l3,0.48000000000000004 c0.11000000000000001,-0.81 0.21000000000000002,-1.5 0.33000000000000007,-2.34 c1.9100000000000001,-0.19000000000000003 3.83,-0.35000000000000003 6,-0.55 c-0.22000000000000003,-1.28 -0.43000000000000005,-2.47 -0.6500000000000001,-3.66 c3.26,0.93 5.24,0.15000000000000002 7.39,-2.62 a33.23,33.23 0 0 1 3.08,-3 c1.4100000000000001,-1.4100000000000001 3,-2.71 3,-5 c0,-0.35000000000000003 0.8300000000000001,-0.8200000000000001 1.35,-1.05 c2.59,-1.08 4.84,-3.06 8,-2.8 c0.47000000000000003,0 1.18,-0.6600000000000001 1.47,-1.2 c1.49,-2.87 2.93,-5.79 4.32,-8.71 a3.2,3.2 0 0 0 0.15000000000000002,-1.77 c-0.2,-1.48 -0.53,-2.94 1.48,-3.49 c0.30000000000000004,-0.09000000000000002 0.5,-0.6000000000000001 0.7400000000000001,-0.92 c1.21,-1.71 2.38,-3.46 3.66,-5.11 c1,-1.26 1.24,-4.82 0.25,-6 c-0.2,-0.23 -0.6000000000000001,-0.51 -0.8,-0.46 c-2.08,0.5800000000000001 -3.23,-0.8900000000000001 -4.46,-2 a3.89,3.89 0 0 0 -3.6500000000000004,-1 c-1.06,0.2 -2.26,-0.47000000000000003 -3.37,-0.35000000000000003 c-2.2800000000000002,0.23 -3.55,-1.3 -5.15,-2.45 c-1.24,-0.8800000000000001 -2.87,-1.6600000000000001 -4.27,0.17 c-2,-1.25 -3.51,-2.7600000000000002 -3.75,-5.14 a6.5,6.5 0 0 0 -5.07,-6.13 a10.45,10.45 0 0 0 -3.8600000000000003,-0.25 a3.21,3.21 0 0 1 -3.3,-1.23 c-1.24,-1.58 -2.33,-3.42 -4.640000000000001,-3.84 c-0.37000000000000005,0 -0.8500000000000001,-0.7200000000000001 -0.93,-1.17 a2.66,2.66 0 0 0 -2,-2.29 a9.9,9.9 0 0 0 -1.6700000000000002,-0.37000000000000005 a7.07,7.07 0 0 0 -2,0 a9.620000000000001,9.620000000000001 0 0 1 -7.4,-2 c-3.26,-2.5 -8.67,-1.2 -11,2.19 l-0.1,0.14 c-0.49000000000000005,0.7000000000000001 -1,1.4100000000000001 -1.54,2.16 a15.23,15.23 0 0 0 -2.15,-1.58 c-1.06,-0.53 -2.11,-1 -3.31,0.05000000000000001 a2.4,2.4 0 0 1 -2.2800000000000002,-0.18000000000000002 c-0.18000000000000002,-0.15000000000000002 1.32,-4.51 1.17,-4.66 h-6.66 c0.09000000000000002,0.29000000000000004 3,4.8100000000000005 3.09,5 z" fill="url(#linear-gradient-3)" id="svg_6"/></g><path d="M262.81,287.07999954223635 c-1.85,3.9 -5,7 -8.21,9.88 a145.15,145.15 0 0 1 -24.83,18.5 a99.23,99.23 0 0 1 -16.79,7.8 c-26.39,9.26 -55.46,5.69 -82.84,0 c-13.73,-2.85 -27.92,-6.21 -41.62,-3.24 c-9,1.9500000000000002 -17.17,6.5 -25.2,11 L31.54,348.8599995422363 a112.89,112.89 0 0 1 -14.35,-18.76 a103.17,103.17 0 0 1 -9,-18.67 a119.33,119.33 0 0 1 -5.5,-21.77 c5.38,-2.55 14.2,-1.79 19.17,-2.73 c10.83,-2.06 21.43,-5.24 32,-8.41 l29.34,-8.82 c5.52,-1.6600000000000001 11,-3.3200000000000003 16.39,-5.45 c4.94,-2 9.73,-4.35 14.84,-5.82 c8.15,-2.35 16.76,-2.31 25.23,-2.27 l42.11,0.25 a4.43,4.43 0 0 1 2.34,0.44000000000000006 c1.8900000000000001,1.18 1,4.13 -0.39000000000000007,5.86 c-5.82,7.32 -15.81,9.71 -25.09,10.65 c-2.75,0.28 -5.59,0.5 -8.05,1.7400000000000002 s-4.5,3.8200000000000003 -4.17,6.5600000000000005 c0.47000000000000003,4.14 5.39,5.92 9.47,6.75 Q173.8,291.9799995422363 192,293.8799995422363 c6.77,0.6900000000000002 13.63,1.18 20.36,0.17 c17.8,-2.66 32.64,-15.44 50.21,-19.32 C265,278.2999995422363 264.66,283.1899995422363 262.81,287.07999954223635 z" fill="#faaf90" id="svg_7"/><ellipse cx="199.58999633789062" cy="212.75999450683594" rx="96.94999694824219" ry="6.179999828338623" fill="#3e3e54" id="svg_8"/><path d="M171.24,198.34999954223633 A100.4,100.4 0 0 1 187,196.21999954223634 c7.2,-0.53 14.5,-0.8700000000000001 21.58,0.55 A106.14,106.14 0 0 1 222.34,200.97999954223633 a266.67,266.67 0 0 0 58.5,13.14 c-37.52,1.28 -75.06,0 -112.54,-1.83 q-7.7,-0.39000000000000007 -15.39,-0.81 c-3.92,-0.21000000000000002 -10.68,0.6600000000000001 -14.06,-1.06 c2.22,-3.55 10.56,-4.41 14.29,-5.82 C159.12,202.35999954223632 165,199.83999954223634 171.24,198.34999954223633 z" fill="#3e3e54" id="svg_9"/><path d="M176.34,199.85999954223632 s-2.42,-54.86 -14,-74.22 l3.49,-1.61 s16.41,75.56 16.68,76.37 S180.37,203.61999954223631 176.34,199.85999954223632 z" fill="#3e3e54" id="svg_10"/><path d="M211,106.52999954223633 a6.34,6.34 0 0 0 -6.17,1.62 a9.17,9.17 0 0 0 -2.5700000000000003,6 a5.88,5.88 0 0 1 -0.44000000000000006,2.58 a5.18,5.18 0 0 1 -1.6400000000000001,1.55 a15,15 0 0 0 -5.65,6.72 c-1,2.79 -0.54,6.26 1.7200000000000002,8.19 c-3,2.8600000000000003 -4.74,7.33 -3.45,11.27 s6.23,6.5600000000000005 9.9,4.640000000000001 a7.74,7.74 0 0 0 14.15,3.22 c1.9300000000000002,2.3 5.7,2.41 8.18,0.7200000000000001 a10,10 0 0 0 3.92,-7.76 a25.5,25.5 0 0 0 -1.47,-8.83 c2.5700000000000003,-0.7500000000000001 5.28,-1.58 7.11,-3.54 s2.36,-5.42 0.35000000000000003,-7.21 a9.5,9.5 0 0 0 -3.41,-17 c-1.8800000000000001,-0.48000000000000004 -3.63,0.07 -5.12,-1.3800000000000001 c-1.15,-1.13 -1.3,-3.29 -2.1,-4.67 C220.77,96.58999954223633 210.33,98.83999954223633 211,106.52999954223633 z" fill="#27aa24" id="svg_11"/><path d="M212.72,152.14999954223632 c-0.07,-1.84 -0.12000000000000001,-3.8 0.8200000000000001,-5.38 a9.7,9.7 0 0 1 2.17,-2.31 a24.88,24.88 0 0 1 4.49,-3.22 a8.65,8.65 0 0 1 5.35,-1 c-2.05,1.8800000000000001 -5,2.51 -7.14,4.25 a19.6,19.6 0 0 0 -5.52,7.77 c-1.6300000000000001,5.39 -1.71,11.9 -2.55,17.49 s-1.6800000000000002,11.35 -2.5300000000000002,17 c-0.8800000000000001,6 -2.42,12.21 -2.66,18.25 c0,0.8500000000000001 -3.16,2.26 -5.6,-2.6900000000000004 c3,-9 5.48,-18.17 7.74,-27.36 c1.9100000000000001,-7.83 3.6,-15.74 4.77,-23.72 c0.53,-3.6 1.4300000000000002,-7.7 1.24,-11.34 c-0.21000000000000002,-3.85 -4.27,-7.62 -7.51,-9.27 c-0.22000000000000003,-0.12000000000000001 -0.45,-0.23 -0.6800000000000002,-0.33000000000000007 c-0.3400000000000001,0.24000000000000002 -0.08000000000000002,0.78 0.2,1.1 c2.46,2.74 5.77,4.93 7.06,8.38 c0.3400000000000001,0.91 0.52,1.87 0.8300000000000001,2.79 c-0.2,-0.5900000000000001 0.52,-2.31 0.43000000000000005,-3.16 a25.6,25.6 0 0 1 -0.26,-3.42 a45,45 0 0 0 -0.5900000000000001,-8 l3.84,-0.27 S215,138.50999954223633 213,152.03999954223633 " fill="#3e3e54" id="svg_12"/><path d="M254.38,113.90999954223633 a6.33,6.33 0 0 0 -6.17,1.62 a9.17,9.17 0 0 0 -2.5700000000000003,6 a6,6 0 0 1 -0.44000000000000006,2.58 a5.18,5.18 0 0 1 -1.6400000000000001,1.55 a15,15 0 0 0 -5.65,6.71 c-1,2.8 -0.55,6.27 1.7200000000000002,8.2 c-3,2.8600000000000003 -4.74,7.33 -3.45,11.27 s6.23,6.5600000000000005 9.9,4.640000000000001 a7.74,7.74 0 0 0 14.15,3.22 c1.9300000000000002,2.3 5.7,2.41 8.18,0.7200000000000001 a10.06,10.06 0 0 0 3.92,-7.76 a25.51,25.51 0 0 0 -1.48,-8.83 c2.58,-0.7500000000000001 5.28,-1.58 7.12,-3.54 s2.35,-5.42 0.35000000000000003,-7.21 a9.5,9.5 0 0 0 -3.41,-17 c-1.8800000000000001,-0.48000000000000004 -3.63,0.07 -5.12,-1.3800000000000001 c-1.1600000000000001,-1.13 -1.31,-3.29 -2.1,-4.67 C264.15,103.97999954223633 253.70999999999998,106.21999954223632 254.38,113.90999954223633 z" fill="#27aa24" id="svg_13"/><path d="M256.1,159.52999954223634 c-0.07,-1.84 -0.12000000000000001,-3.8 0.81,-5.38 a9.75,9.75 0 0 1 2.18,-2.31 a24.88,24.88 0 0 1 4.49,-3.22 a8.64,8.64 0 0 1 5.35,-1 c-2.05,1.8800000000000001 -5,2.51 -7.14,4.25 a19.72,19.72 0 0 0 -5.53,7.77 c-1.62,5.39 -1.7000000000000002,11.9 -2.54,17.49 s-1.6900000000000002,11.35 -2.5300000000000002,17 c-0.8800000000000001,6 -2.42,12.21 -2.67,18.25 c0,0.8500000000000001 -3.15,2.26 -5.59,-2.6900000000000004 c3,-9 5.48,-18.17 7.73,-27.36 c1.92,-7.83 3.6100000000000003,-15.74 4.78,-23.72 c0.52,-3.6 1.4300000000000002,-7.7 1.23,-11.34 c-0.2,-3.85 -4.27,-7.62 -7.5,-9.27 c-0.22000000000000003,-0.12000000000000001 -0.45,-0.23 -0.6800000000000002,-0.33000000000000007 c-0.3400000000000001,0.24000000000000002 -0.09000000000000002,0.78 0.2,1.1 c2.46,2.74 5.77,4.93 7.06,8.38 c0.3400000000000001,0.91 0.52,1.87 0.8300000000000001,2.79 c-0.2,-0.5900000000000001 0.52,-2.31 0.42000000000000004,-3.16 a29.41,29.41 0 0 1 -0.26,-3.42 a43.24,43.24 0 0 0 -0.5900000000000001,-8 l3.85,-0.27 s-1.62,10.8 -3.64,24.33 " fill="#3e3e54" id="svg_14"/><path d="M225.36,156.31999954223633 a3.52,3.52 0 0 0 -3.44,0.91 a5.12,5.12 0 0 0 -1.44,3.36 a3.3200000000000003,3.3200000000000003 0 0 1 -0.25,1.44 a2.91,2.91 0 0 1 -0.91,0.8700000000000001 a8.39,8.39 0 0 0 -3.16,3.75 a4.23,4.23 0 0 0 1,4.58 a6.3,6.3 0 0 0 -1.92,6.29 c0.7200000000000001,2.2 3.47,3.67 5.52,2.6 a4.33,4.33 0 0 0 7.91,1.79 a3.54,3.54 0 0 0 4.57,0.41000000000000003 a5.62,5.62 0 0 0 2.19,-4.33 a14.43,14.43 0 0 0 -0.8200000000000001,-4.94 a8.48,8.48 0 0 0 4,-2 c1,-1.09 1.31,-3 0.2,-4 a5.32,5.32 0 0 0 -1.9100000000000001,-9.48 c-1.05,-0.27 -2,0 -2.8600000000000003,-0.77 c-0.6500000000000001,-0.6300000000000001 -0.7300000000000001,-1.84 -1.18,-2.6100000000000003 C230.82,150.76999954223632 225,152.02999954223634 225.36,156.31999954223633 z" fill="#27aa24" id="svg_15"/><path d="M226.32,181.80999954223634 a5.44,5.44 0 0 1 0.46,-3 a5.12,5.12 0 0 1 1.21,-1.29 a13.39,13.39 0 0 1 2.51,-1.8 a4.82,4.82 0 0 1 3,-0.56 c-1.1400000000000001,1 -2.7800000000000002,1.4 -4,2.37 a11.07,11.07 0 0 0 -3.09,4.34 c-0.9,3 -0.9500000000000001,6.65 -1.42,9.77 l-1.4100000000000001,9.51 c-0.49000000000000005,3.34 -1.35,6.83 -1.49,10.2 c0,0.48000000000000004 -1.7600000000000002,1.26 -3.12,-1.5 c1.6500000000000001,-5 3.06,-10.15 4.32,-15.29 c1.07,-4.37 2,-8.79 2.66,-13.25 a33.06,33.06 0 0 0 0.6900000000000002,-6.33 c-0.11000000000000001,-2.15 -2.38,-4.26 -4.19,-5.18 l-0.38000000000000006,-0.19000000000000003 c-0.19000000000000003,0.14 0,0.44000000000000006 0.11000000000000001,0.6200000000000001 c1.3800000000000001,1.53 3.23,2.75 3.95,4.68 c0.19000000000000003,0.51 0.29000000000000004,1 0.46,1.56 c-0.11000000000000001,-0.33000000000000007 0.29000000000000004,-1.29 0.24000000000000002,-1.7600000000000002 a15.07,15.07 0 0 1 -0.15000000000000002,-1.92 a24,24 0 0 0 -0.33000000000000007,-4.48 l2.15,-0.15000000000000002 l-2,13.59 " fill="#3e3e54" id="svg_16"/><path d="M278.7,157.17999954223632 a3.72,3.72 0 0 0 -3.72,0.39000000000000007 a5.34,5.34 0 0 0 -2,3.27 a3.6100000000000003,3.6100000000000003 0 0 1 -0.48000000000000004,1.45 a2.9,2.9 0 0 1 -1.09,0.7600000000000001 a8.83,8.83 0 0 0 -3.87,3.4 a4.43,4.43 0 0 0 0.28,4.9 a6.63,6.63 0 0 0 -3,6.23 c0.41000000000000003,2.4 3,4.35 5.33,3.56 a4.54,4.54 0 0 0 7.92,3.11 a3.73,3.73 0 0 0 4.68,1.1400000000000001 a5.91,5.91 0 0 0 3,-4.16 a15.19,15.19 0 0 0 -0.08000000000000002,-5.25 a8.81,8.81 0 0 0 4.43,-1.4300000000000002 c1.24,-1 1.84,-2.93 0.8400000000000001,-4.14 a5.58,5.58 0 0 0 -0.49000000000000005,-10.14 c-1,-0.44000000000000006 -2.11,-0.27 -2.84,-1.25 c-0.5800000000000001,-0.7600000000000001 -0.47000000000000003,-2 -0.81,-2.89 C285.23,152.26999954223632 279,152.65999954223633 278.7,157.17999954223632 z" fill="#27aa24" id="svg_17"/><path d="M275.69,183.76999954223632 a5.71,5.71 0 0 1 0.9400000000000001,-3 a5.55,5.55 0 0 1 1.47,-1.15 a14.48,14.48 0 0 1 2.88,-1.47 a5.05,5.05 0 0 1 3.19,-0.11000000000000001 c-1.35,0.91 -3.1,1 -4.51,1.84 a11.43,11.43 0 0 0 -3.89,4 c-1.42,3 -2,6.74 -3,9.91 l-3,9.65 c-1,3.39 -2.48,6.87 -3.15,10.35 c-0.09000000000000002,0.49000000000000005 -2,1 -3,-2 c2.51,-5 4.78,-10.05 6.890000000000001,-15.19 c1.8,-4.37 3.47,-8.8 4.85,-13.33 a34.67,34.67 0 0 0 1.71,-6.47 c0.22000000000000003,-2.24 -1.8,-4.79 -3.5300000000000002,-6 l-0.37000000000000005,-0.25 c-0.22000000000000003,0.11000000000000001 -0.12000000000000001,0.45 0,0.6600000000000001 c1.19,1.8 2.91,3.36 3.36,5.48 c0.11000000000000001,0.55 0.13,1.13 0.23,1.6900000000000002 c-0.06000000000000001,-0.36000000000000004 0.51,-1.3 0.53,-1.8 a15.36,15.36 0 0 1 0.15000000000000002,-2 a26.44,26.44 0 0 0 0.36000000000000004,-4.7 l2.25,0.18000000000000002 l-4.24,13.79 " fill="#3e3e54" id="svg_18"/><path d="M119.22,157.17999954223632 a4,4 0 0 0 -3.26,2.27 a5.71,5.71 0 0 0 -0.22000000000000003,4.07 a3.7800000000000002,3.7800000000000002 0 0 1 0.30000000000000004,1.61 a3.3200000000000003,3.3200000000000003 0 0 1 -0.6300000000000001,1.26 a9.38,9.38 0 0 0 -1.87,5.14 A4.71,4.71 0 0 0 116.3,175.97999954223633 a7,7 0 0 0 0.4,7.33 c1.6,2 5,2.51 6.79,0.6000000000000001 a4.82,4.82 0 0 0 9,-1.15 a3.94,3.94 0 0 0 4.94,-1.32 a6.29,6.29 0 0 0 0.6400000000000001,-5.39 a15.82,15.82 0 0 0 -2.7600000000000002,-4.85 a9.49,9.49 0 0 0 3.41,-3.6 c0.6500000000000001,-1.54 0.21000000000000002,-3.68 -1.34,-4.29 a5.93,5.93 0 0 0 -5.63,-9.2 c-1.2,0.12000000000000001 -2.11,0.8200000000000001 -3.29,0.28 c-0.92,-0.41000000000000003 -1.47,-1.6400000000000001 -2.24,-2.2800000000000002 C122.81,149.26999954223632 117.18,152.81999954223633 119.22,157.17999954223632 z" fill="#27aa24" id="svg_19"/><path d="M130,183.51999954223632 a6,6 0 0 1 -0.6700000000000002,-3.33 a5.8100000000000005,5.8100000000000005 0 0 1 0.78,-1.81 a14.93,14.93 0 0 1 1.94,-2.85 a5.38,5.38 0 0 1 2.91,-1.73 c-0.8,1.53 -2.37,2.5300000000000002 -3.27,4 a12.26,12.26 0 0 0 -1.57,5.73 c0.2,3.5 1.55,7.33 2.26,10.78 s1.44,7 2.17,10.51 c0.7600000000000001,3.6900000000000004 1.19,7.67 2.34,11.26 c0.17,0.5 -1.36,2 -3.85,-0.38000000000000006 c-0.19000000000000003,-5.9 -0.6800000000000002,-11.81 -1.33,-17.67 c-0.56,-5 -1.26,-10 -2.29,-14.91 a37.91,37.91 0 0 0 -1.7000000000000002,-6.91 c-0.9400000000000001,-2.2 -4.13,-3.54 -6.38,-3.8200000000000003 l-0.47000000000000003,0 c-0.15000000000000002,0.21000000000000002 0.12000000000000001,0.47000000000000003 0.35000000000000003,0.6000000000000001 c2,1.07 4.44,1.6500000000000001 5.93,3.39 c0.39000000000000007,0.46 0.7100000000000001,1 1.08,1.46 c-0.24000000000000002,-0.30000000000000004 -0.19000000000000003,-1.47 -0.42000000000000004,-1.94 a17.3,17.3 0 0 1 -0.8900000000000001,-2 a28,28 0 0 0 -2.06,-4.57 l2.19,-1 s1.37,6.67 3.08,15 " fill="#3e3e54" id="svg_20"/><path d="M172.25,141.56999954223633 c1,-1.7200000000000002 2.49,-3.21 3.25,-5.08 a15.65,15.65 0 0 0 0.77,-6.14 a26.28,26.28 0 0 1 0.39000000000000007,5.74 a5,5 0 0 1 4.5,0.78 c-2,0.18000000000000002 -4.08,0.39000000000000007 -5.71,1.55 c-2,1.4300000000000002 -2.8600000000000003,4 -3.14,6.44 s-0.12000000000000001,4.94 -0.6600000000000001,7.35 c0,-1.8 -0.9,-3.52 -1.1,-5.24 S171.36,143.03999954223633 172.25,141.56999954223633 z" fill="#3e3e54" id="svg_21"/><path d="M161.29,132.65999954223633 c-0.44000000000000006,-0.92 -0.79,-2 -1.7000000000000002,-2.47 l3.31,6.34 l-5.19,1.6500000000000001 c-0.45,0.14 -1,0.5 -0.8200000000000001,0.93 c1.4300000000000002,0.13 2.81,-0.5 4.23,-0.7000000000000001 a7.38,7.38 0 0 1 7.640000000000001,4.42 c-0.13,-0.32000000000000006 0.30000000000000004,-1.51 0.30000000000000004,-1.9300000000000002 a3.47,3.47 0 0 0 -0.3400000000000001,-1.77 c-0.45,-0.6500000000000001 -1.52,-0.93 -2.18,-1.34 A13.16,13.16 0 0 1 161.29,132.65999954223633 z" fill="#3e3e54" id="svg_22"/><path d="M145.78,160.63999954223632 a3.93,3.93 0 0 0 -3.22,2.29 a5.63,5.63 0 0 0 -0.16000000000000003,4.06 a3.6900000000000004,3.6900000000000004 0 0 1 0.30000000000000004,1.59 a3.21,3.21 0 0 1 -0.6100000000000001,1.26 A9.28,9.28 0 0 0 140.3,174.97999954223633 a4.66,4.66 0 0 0 2.79,4.37 a7,7 0 0 0 0.48000000000000004,7.29 c1.61,2 5.05,2.43 6.75,0.51 a4.8,4.8 0 0 0 8.91,-1.24 a3.93,3.93 0 0 0 4.9,-1.3800000000000001 a6.23,6.23 0 0 0 0.5700000000000001,-5.35 a15.79,15.79 0 0 0 -2.8,-4.8 a9.49,9.49 0 0 0 3.35,-3.6100000000000003 c0.6300000000000001,-1.54 0.17,-3.66 -1.3800000000000001,-4.26 a5.890000000000001,5.890000000000001 0 0 0 -5.7,-9.08 c-1.2,0.14 -2.09,0.8400000000000001 -3.27,0.33000000000000007 c-0.92,-0.4 -1.48,-1.62 -2.25,-2.25 C149.26,152.73999954223632 143.7,156.32999954223632 145.78,160.63999954223632 z" fill="#27aa24" id="svg_23"/><path d="M160.19,218.67999954223632 s-1.5,-34 -8.67,-46 l2.17,-1 S163.85,218.50999954223633 164,218.97999954223633 S162.69,220.97999954223633 160.19,218.67999954223632 z" fill="#3e3e54" id="svg_24"/><path d="M157.65,182.54999954223632 a25.39,25.39 0 0 0 2,-3.14 a9.76,9.76 0 0 0 0.47000000000000003,-3.81 a16.32,16.32 0 0 1 0.24000000000000002,3.56 a3.12,3.12 0 0 1 2.79,0.48000000000000004 a7.06,7.06 0 0 0 -3.54,1 a5.6,5.6 0 0 0 -1.9500000000000002,4 a43.14,43.14 0 0 1 -0.4,4.5600000000000005 a28.8,28.8 0 0 0 -0.6800000000000002,-3.25 A6,6 0 0 1 157.65,182.54999954223632 z" fill="#3e3e54" id="svg_25"/><path d="M150.86,177.02999954223634 c-0.28,-0.5700000000000001 -0.49000000000000005,-1.25 -1.06,-1.53 l2,3.93 l-3.21,1 c-0.28,0.09000000000000002 -0.6300000000000001,0.32000000000000006 -0.51,0.5800000000000001 a11.85,11.85 0 0 0 2.62,-0.43000000000000005 a4.5600000000000005,4.5600000000000005 0 0 1 4.74,2.74 c-0.08000000000000002,-0.2 0.18000000000000002,-0.9400000000000001 0.18000000000000002,-1.2 a2.09,2.09 0 0 0 -0.21000000000000002,-1.1 c-0.28,-0.4 -0.9400000000000001,-0.5700000000000001 -1.35,-0.8300000000000001 A8.22,8.22 0 0 1 150.86,177.02999954223634 z" fill="#3e3e54" id="svg_26"/><circle cx="239.5399932861328" cy="42.810001373291016" r="24.200000762939453" fill="#27aa24" id="svg_27"/><path d="M203.14,27.24999954223633 a36,36 0 0 1 -1.42,40.23 c5.87,0.4 11.8,1.6300000000000001 16.88,4.61 s9.22,7.88 10.31,13.67 a30.1,30.1 0 0 1 40.72,-7.55 c-1,-8.46 -5.84,-16.86 -3.46,-25.05 c1.7600000000000002,-6 7,-10.29 12,-14.14 a29.8,29.8 0 0 1 -12.49,-28.38 c-4.9,4.11 -11.95,5 -18.15,3.47 c-5.19,-1.32 -8.44,-4.73 -13,-6.95 c-3,-1.45 -2.23,-1.35 -4.34,1.29 c-1.49,1.85 -2.6100000000000003,3.94 -4.19,5.74 a40.83,40.83 0 0 1 -10.47,8.54 C214.36,23.38999954223633 204,28.57999954223633 203.14,27.24999954223633 z" fill="url(#linear-gradient-4)" id="svg_28"/><path d="M230.39,310.1099995422363 l-0.6200000000000001,5.35 a99.23,99.23 0 0 1 -16.79,7.8 c-26.39,9.26 -55.46,5.69 -82.84,0 c-13.73,-2.85 -27.92,-6.21 -41.62,-3.24 c-9,1.9500000000000002 -17.17,6.5 -25.2,11 L31.54,348.8599995422363 a112.89,112.89 0 0 1 -14.35,-18.76 c6.5,-3.36 48.49,-24.66 65.84,-22.68 c18.82,2.15 70.45,11.29 82.82,10.76 S230.39,310.1099995422363 230.39,310.1099995422363 z" fill="url(#linear-gradient-5)" id="svg_29"/></g></svg>